<svg width="32" height="32" viewBox="0 0 32 32" fill="none" xmlns="http://www.w3.org/2000/svg">
<circle cx="16" cy="16" r="15.5" stroke="#ACD7FB"/>
<path d="M13.2701 21V14.9277H11.1265V21H13.2701ZM12.1986 14.0982C12.9461 14.0982 13.4114 13.6319 13.4114 13.0492C13.3974 12.4533 12.9461 12 12.2127 12C11.4795 12 11 12.4533 11 13.0492C11 13.6319 11.4652 14.0982 12.1846 14.0982H12.1986ZM14.4566 21H16.6002V17.6089C16.6002 17.4275 16.6141 17.2462 16.6707 17.1164C16.8257 16.7538 17.1784 16.3783 17.7705 16.3783C18.5462 16.3783 18.8565 16.9351 18.8565 17.7514V21H21V17.5182C21 15.653 19.9425 14.7852 18.5321 14.7852C17.3757 14.7852 16.868 15.3938 16.5859 15.8083H16.6002V14.9276H14.4566C14.4847 15.4974 14.4566 21 14.4566 21Z" fill="#4B4B4B"/>
</svg>
