<svg width="32" height="32" viewBox="0 0 32 32" fill="none" xmlns="http://www.w3.org/2000/svg">
<circle cx="16" cy="16" r="15.5" stroke="#ACD7FB"/>
<path d="M19.9726 14.243C19.9792 14.3416 19.9792 14.4397 19.9792 14.5378C19.9792 17.5403 17.9169 21 14.1478 21C12.9866 21 11.9078 20.6273 11 19.98C11.1649 20.0009 11.3236 20.0082 11.4951 20.0082C12.4177 20.0107 13.3141 19.6689 14.0399 19.0378C13.6122 19.0293 13.1975 18.8729 12.8539 18.5906C12.5102 18.3082 12.2547 17.9141 12.123 17.463C12.2497 17.4839 12.377 17.498 12.5103 17.498C12.694 17.498 12.8787 17.4698 13.0502 17.4207C12.586 17.3169 12.1686 17.0381 11.8689 16.6318C11.5693 16.2254 11.4059 15.7166 11.4066 15.1919V15.1637C11.6798 15.3323 11.9968 15.4377 12.3327 15.4518C12.0513 15.2447 11.8206 14.9636 11.6612 14.6336C11.5017 14.3036 11.4184 13.935 11.4188 13.5607C11.4188 13.139 11.52 12.7522 11.6976 12.415C12.2127 13.117 12.855 13.6913 13.5831 14.1007C14.3112 14.5101 15.1088 14.7455 15.9242 14.7916C15.8926 14.6224 15.8733 14.4471 15.8733 14.2711C15.8732 13.9729 15.9261 13.6775 16.029 13.4018C16.132 13.1262 16.283 12.8758 16.4733 12.6649C16.6637 12.4539 16.8897 12.2867 17.1384 12.1726C17.3872 12.0585 17.6538 11.9999 17.923 12C18.5132 12 19.046 12.274 19.4205 12.7172C19.8794 12.6189 20.3194 12.4333 20.7211 12.1686C20.5682 12.6934 20.2478 13.1385 19.82 13.4203C20.2269 13.3689 20.6247 13.2503 21 13.0685C20.7197 13.5213 20.3723 13.9184 19.9726 14.243Z" fill="#4B4B4B"/>
</svg>
